<svg xmlns="http://www.w3.org/2000/svg" width="800" height="300" viewBox="0 0 800 300" role="img" aria-labelledby="title desc">
  <title id="title">JE4NDEV product engineering mobile banner</title>
  <desc id="desc">Mobile banner focused on SaaS, AI workflows and reliable production systems.</desc>
  <defs>
    <linearGradient id="accent" x1="0" y1="0" x2="1" y2="0">
      <stop offset="0" stop-color="#5EEAD4"/>
      <stop offset="1" stop-color="#8B5CF6"/>
    </linearGradient>
    <radialGradient id="glow" cx="75%" cy="35%" r="70%">
      <stop offset="0" stop-color="#8B5CF6" stop-opacity="0.20"/>
      <stop offset="1" stop-color="#8B5CF6" stop-opacity="0"/>
    </radialGradient>
    <pattern id="grid" width="28" height="28" patternUnits="userSpaceOnUse">
      <path d="M28 0H0V28" fill="none" stroke="#ffffff" stroke-opacity="0.035"/>
    </pattern>
  </defs>
  <rect width="800" height="300" rx="22" fill="#050505"/>
  <rect width="800" height="300" rx="22" fill="url(#grid)"/>
  <rect width="800" height="300" rx="22" fill="url(#glow)"/>
  <rect x="1" y="1" width="798" height="298" rx="21" fill="none" stroke="#ffffff" stroke-opacity="0.11" stroke-width="2"/>

  <g transform="translate(42 46)">
    <circle cx="7" cy="7" r="7" fill="#10B981"/>
    <text x="27" y="13" fill="#D4D4D8" font-family="Geist Mono, ui-monospace, Consolas, monospace" font-size="16" letter-spacing="2">PRODUCT ENGINEERING</text>
    <text x="0" y="104" fill="#FFFFFF" font-family="Geist, Inter, Segoe UI, Arial, sans-serif" font-size="72" font-weight="760" letter-spacing="-3">JE4NDEV</text>
    <rect x="0" y="124" width="410" height="4" rx="2" fill="url(#accent)"/>
    <text x="0" y="170" fill="#F4F4F5" font-family="Geist, Inter, Segoe UI, Arial, sans-serif" font-size="27" font-weight="580">SaaS · AI workflows</text>
    <text x="0" y="205" fill="#A1A1AA" font-family="Geist, Inter, Segoe UI, Arial, sans-serif" font-size="24" font-weight="480">Reliable production systems</text>
  </g>

  <g transform="translate(570 72)" fill="none" stroke-linecap="round">
    <path d="M20 56L100 20L170 70L120 148L38 152L20 56" stroke="#ffffff" stroke-opacity="0.12" stroke-width="2"/>
    <path d="M20 56L100 20L170 70" stroke="url(#accent)" stroke-width="3"/>
    <path d="M38 152L120 148L170 70" stroke="url(#accent)" stroke-opacity="0.60" stroke-width="3"/>
    <circle cx="20" cy="56" r="15" fill="#0A0A0A" stroke="#5EEAD4" stroke-width="2"/>
    <circle cx="20" cy="56" r="4" fill="#5EEAD4"/>
    <circle cx="100" cy="20" r="13" fill="#0A0A0A" stroke="#ffffff" stroke-opacity="0.25"/>
    <circle cx="170" cy="70" r="19" fill="#0A0A0A" stroke="#8B5CF6" stroke-width="2"/>
    <circle cx="170" cy="70" r="5" fill="#8B5CF6"/>
    <circle cx="120" cy="148" r="27" fill="#0A0A0A" stroke="url(#accent)" stroke-width="2"/>
    <text x="120" y="155" text-anchor="middle" fill="#FFFFFF" font-family="Geist Mono, ui-monospace, Consolas, monospace" font-size="17" font-weight="700">JD</text>
    <circle cx="38" cy="152" r="14" fill="#0A0A0A" stroke="#10B981"/>
    <circle cx="38" cy="152" r="4" fill="#10B981"/>
  </g>
</svg>
